<?xml version="1.0" encoding="utf-8"?>
<!-- Generator: Adobe Illustrator 22.0.1, SVG Export Plug-In . SVG Version: 6.00 Build 0)  -->
<svg version="1.1" xmlns="http://www.w3.org/2000/svg" xmlns:xlink="http://www.w3.org/1999/xlink" x="0px" y="0px"
	 viewBox="0 0 957 792" style="enable-background:new 0 0 957 792;" xml:space="preserve">
<style type="text/css">
	.st0{fill:#007858;}
	.st1{fill:#575656;}
	.st2{fill:#BDBCBC;}
</style>
<g id="Layer_1">
</g>
<g id="Layer_2">
	<g>
		<path class="st0" d="M134.9,722.8c-0.7,1.6-1.8,2.9-3.1,3.9c-1.3,1.1-2.9,1.9-4.7,2.4c-1.8,0.6-3.8,0.8-6,0.8
			c-3.2,0-5.9-0.4-8.3-1.3s-4.5-2.3-6.5-4.4l4.2-4.2c1.5,1.6,3.1,2.6,4.9,3.2c1.7,0.6,3.7,0.9,5.8,0.9c2.7,0,4.9-0.6,6.4-1.7
			c1.5-1.1,2.3-2.7,2.3-4.8c0-1.9-0.5-3.4-1.6-4.4c-0.5-0.5-1.1-0.9-1.8-1.1c-0.6-0.2-1.6-0.5-2.8-0.7l-4.9-0.7
			c-3.4-0.5-6-1.6-7.9-3.4c-2-1.9-3-4.7-3-8.1c0-1.8,0.3-3.5,1-5c0.6-1.5,1.6-2.9,2.8-4c1.2-1.1,2.6-2,4.4-2.6
			c1.7-0.6,3.7-0.9,5.9-0.9c2.8,0,5.2,0.4,7.2,1.1c2,0.8,3.9,2,5.7,3.7l-4,4.1c-1.3-1.3-2.7-2.1-4.2-2.6c-1.5-0.5-3.1-0.7-4.9-0.7
			c-2.5,0-4.3,0.6-5.7,1.9c-1.3,1.3-2,2.8-2,4.7c0,0.8,0.1,1.5,0.4,2.2c0.3,0.7,0.7,1.2,1.2,1.8c1.1,1,2.7,1.7,4.7,2l4.7,0.7
			c2,0.3,3.5,0.7,4.7,1.2c1.2,0.5,2.2,1.1,3.1,1.9c1.1,1,2,2.3,2.6,3.8c0.6,1.5,0.8,3.1,0.8,5C136,719.5,135.6,721.2,134.9,722.8z"
			/>
		<path class="st0" d="M199.4,722.6c-0.9,1.6-2,3-3.3,4.1c-1.3,1.1-2.8,1.9-4.5,2.5c-1.7,0.6-3.4,0.8-5.3,0.8c-2.2,0-4.2-0.4-6-1.2
			c-1.8-0.8-3.5-1.9-4.9-3.4c-1-1-1.8-2.1-2.3-3.3c-0.5-1.2-0.9-2.4-1.2-3.8c-0.3-1.4-0.4-2.9-0.4-4.5c0-1.6-0.1-3.5-0.1-5.5
			s0-3.9,0.1-5.5c0-1.6,0.2-3.2,0.4-4.5c0.3-1.4,0.7-2.6,1.2-3.8c0.5-1.2,1.3-2.2,2.3-3.3c1.4-1.5,3.1-2.6,4.9-3.4
			c1.8-0.8,3.8-1.2,6-1.2c3.9,0,7.1,1.1,9.8,3.3c2.7,2.2,4.4,5.5,5.1,9.7h-6.4c-0.5-2.1-1.5-3.9-2.8-5.2c-1.4-1.4-3.3-2-5.6-2
			c-1.3,0-2.4,0.2-3.5,0.7s-2,1.1-2.7,1.9c-0.5,0.6-0.9,1.2-1.3,1.8c-0.3,0.7-0.6,1.5-0.8,2.4s-0.3,2.2-0.4,3.6
			c-0.1,1.4-0.1,3.2-0.1,5.4s0,3.9,0.1,5.4c0.1,1.4,0.2,2.6,0.4,3.6c0.2,1,0.4,1.8,0.8,2.4c0.3,0.7,0.8,1.3,1.3,1.8
			c0.7,0.8,1.6,1.4,2.7,1.9c1.1,0.5,2.2,0.7,3.5,0.7c2.3,0,4.2-0.7,5.6-2c1.4-1.4,2.4-3.1,2.9-5.2h6.4
			C200.9,719.1,200.3,720.9,199.4,722.6z"/>
		<path class="st0" d="M261.3,729.7v-18.5h-16.9v18.5h-6.3v-42.5h6.3v18.1h16.9v-18.1h6.3v42.5H261.3z"/>
		<path class="st0" d="M335.1,721.3c-0.8,1.8-1.8,3.3-3.2,4.6c-1.3,1.3-2.9,2.3-4.8,3c-1.8,0.7-3.8,1.1-5.9,1.1s-4.1-0.4-5.9-1.1
			c-1.8-0.7-3.4-1.7-4.7-3c-1.3-1.3-2.4-2.8-3.1-4.6c-0.8-1.8-1.1-3.8-1.1-6v-28.2h6.3V715c0,2.9,0.8,5.1,2.3,6.7
			c1.6,1.6,3.7,2.4,6.3,2.4c2.6,0,4.7-0.8,6.3-2.4c1.6-1.6,2.4-3.9,2.4-6.7v-27.9h6.3v28.2C336.2,717.5,335.9,719.5,335.1,721.3z"/>
		<path class="st0" d="M398.1,729.7v-18.5h-16.9v18.5h-6.3v-42.5h6.3v18.1h16.9v-18.1h6.3v42.5H398.1z"/>
		<path class="st0" d="M457.9,693v36.7h-6.3V693h-11.5v-5.8h29.3v5.8H457.9z"/>
		<path class="st0" d="M505,729.7v-42.5h26.7v5.8h-20.3v12.4h17.4v5.7h-17.4v12.8h20.3v5.8H505z"/>
		<path class="st0" d="M595.2,722.6c-0.9,1.6-2,3-3.3,4.1c-1.3,1.1-2.8,1.9-4.5,2.5c-1.7,0.6-3.4,0.8-5.3,0.8c-2.2,0-4.2-0.4-6-1.2
			s-3.5-1.9-4.9-3.4c-1-1-1.8-2.1-2.3-3.3c-0.5-1.2-0.9-2.4-1.2-3.8c-0.3-1.4-0.4-2.9-0.4-4.5c0-1.6-0.1-3.5-0.1-5.5s0-3.9,0.1-5.5
			c0-1.6,0.2-3.2,0.4-4.5c0.3-1.4,0.7-2.6,1.2-3.8c0.5-1.2,1.3-2.2,2.3-3.3c1.4-1.5,3.1-2.6,4.9-3.4s3.8-1.2,6-1.2
			c3.9,0,7.1,1.1,9.8,3.3c2.7,2.2,4.4,5.5,5.1,9.7h-6.4c-0.5-2.1-1.5-3.9-2.8-5.2c-1.4-1.4-3.3-2-5.6-2c-1.3,0-2.4,0.2-3.5,0.7
			c-1.1,0.5-2,1.1-2.7,1.9c-0.5,0.6-0.9,1.2-1.3,1.8c-0.3,0.7-0.6,1.5-0.8,2.4s-0.3,2.2-0.4,3.6c-0.1,1.4-0.1,3.2-0.1,5.4
			s0,3.9,0.1,5.4c0.1,1.4,0.2,2.6,0.4,3.6c0.2,1,0.4,1.8,0.8,2.4c0.3,0.7,0.8,1.3,1.3,1.8c0.7,0.8,1.6,1.4,2.7,1.9
			c1.1,0.5,2.2,0.7,3.5,0.7c2.3,0,4.2-0.7,5.6-2c1.4-1.4,2.4-3.1,2.9-5.2h6.4C596.7,719.1,596.1,720.9,595.2,722.6z"/>
		<path class="st0" d="M657.1,729.7v-18.5h-16.9v18.5h-6.3v-42.5h6.3v18.1h16.9v-18.1h6.3v42.5H657.1z"/>
		<path class="st0" d="M728.4,729.7l-19.3-29.9v29.9h-6.3v-42.5h5.8l19.3,29.8v-29.8h6.3v42.5H728.4z"/>
		<path class="st0" d="M773.4,729.7v-42.5h6.3v42.5H773.4z"/>
		<path class="st0" d="M844.1,729.7l-11.7-20.9l-7,8.6v12.3H819v-42.5h6.3v21.4l17.1-21.4h7.7l-13.5,16.6l14.9,25.8H844.1z"/>
	</g>
	<g>
		<path class="st1" d="M138.3,621.9c0,1.7-0.2,3.2-0.4,4.5c-0.2,1.4-0.6,2.6-1.2,3.8c-0.5,1.2-1.3,2.2-2.3,3.3
			c-1.4,1.5-3.1,2.6-4.9,3.4c-1.8,0.8-3.9,1.2-6.1,1.2s-4.3-0.4-6.1-1.2s-3.4-1.9-4.9-3.4c-1-1-1.8-2.1-2.3-3.3
			c-0.5-1.2-0.9-2.4-1.2-3.8c-0.3-1.4-0.4-2.9-0.4-4.5c0-1.6-0.1-3.5-0.1-5.5s0-3.9,0.1-5.5c0-1.6,0.2-3.2,0.4-4.5
			c0.3-1.4,0.7-2.6,1.2-3.8c0.5-1.2,1.3-2.2,2.3-3.3c1.4-1.5,3.1-2.6,4.9-3.4s3.8-1.2,6.1-1.2s4.3,0.4,6.1,1.2
			c1.8,0.8,3.5,1.9,4.9,3.4c1,1,1.8,2.1,2.3,3.3c0.5,1.2,0.9,2.4,1.2,3.8c0.2,1.4,0.4,2.9,0.4,4.5c0,1.7,0.1,3.5,0.1,5.5
			S138.4,620.3,138.3,621.9z M132,611.1c-0.1-1.4-0.2-2.6-0.4-3.6s-0.4-1.8-0.8-2.4c-0.3-0.7-0.8-1.3-1.3-1.8
			c-0.7-0.8-1.7-1.4-2.7-1.9c-1.1-0.5-2.2-0.7-3.5-0.7c-1.3,0-2.4,0.2-3.5,0.7c-1.1,0.5-2,1.1-2.7,1.9c-0.5,0.6-0.9,1.2-1.3,1.8
			c-0.3,0.7-0.6,1.5-0.8,2.4s-0.3,2.2-0.4,3.6c-0.1,1.4-0.1,3.2-0.1,5.3s0,3.9,0.1,5.3s0.2,2.6,0.4,3.6c0.2,1,0.4,1.8,0.8,2.4
			c0.3,0.7,0.8,1.3,1.3,1.8c0.7,0.8,1.7,1.4,2.7,1.9c1.1,0.5,2.2,0.7,3.5,0.7c1.3,0,2.4-0.2,3.5-0.7c1.1-0.5,2-1.1,2.7-1.9
			c0.5-0.6,0.9-1.2,1.3-1.8c0.3-0.7,0.6-1.5,0.8-2.4c0.2-1,0.3-2.2,0.4-3.6s0.1-3.2,0.1-5.3S132,612.5,132,611.1z"/>
		<path class="st1" d="M215.1,637.7l-8.8-17.9h-7.9v17.9H192v-42.5h16.2c2,0,3.8,0.3,5.4,0.9c1.6,0.6,2.9,1.5,4.1,2.6
			c1.1,1.1,2,2.4,2.6,3.9c0.6,1.5,0.9,3.2,0.9,5c0,3.1-0.8,5.5-2.4,7.4c-1.6,1.9-3.6,3.2-5.9,3.8l9.6,18.8H215.1z M212.9,602.7
			c-1.3-1.2-3-1.8-5.1-1.8h-9.4v13.4h9.4c2.1,0,3.8-0.6,5.1-1.7c1.3-1.2,2-2.8,2-4.9C214.8,605.6,214.2,603.9,212.9,602.7z"/>
		<path class="st1" d="M288.8,601v36.7h-6.3V601H271v-5.8h29.3v5.8H288.8z"/>
		<path class="st1" d="M375.1,637.7v-18.5h-16.9v18.5h-6.3v-42.5h6.3v18.1h16.9v-18.1h6.3v42.5H375.1z"/>
		<path class="st1" d="M465,621.9c0,1.7-0.2,3.2-0.4,4.5c-0.2,1.4-0.6,2.6-1.2,3.8c-0.5,1.2-1.3,2.2-2.3,3.3
			c-1.4,1.5-3.1,2.6-4.9,3.4c-1.8,0.8-3.9,1.2-6.1,1.2s-4.3-0.4-6.1-1.2s-3.4-1.9-4.9-3.4c-1-1-1.8-2.1-2.3-3.3
			c-0.5-1.2-0.9-2.4-1.2-3.8c-0.3-1.4-0.4-2.9-0.4-4.5c0-1.6-0.1-3.5-0.1-5.5s0-3.9,0.1-5.5c0-1.6,0.2-3.2,0.4-4.5
			c0.3-1.4,0.7-2.6,1.2-3.8c0.5-1.2,1.3-2.2,2.3-3.3c1.4-1.5,3.1-2.6,4.9-3.4s3.8-1.2,6.1-1.2s4.3,0.4,6.1,1.2
			c1.8,0.8,3.5,1.9,4.9,3.4c1,1,1.8,2.1,2.3,3.3c0.5,1.2,0.9,2.4,1.2,3.8c0.2,1.4,0.4,2.9,0.4,4.5c0,1.7,0.1,3.5,0.1,5.5
			S465,620.3,465,621.9z M458.6,611.1c-0.1-1.4-0.2-2.6-0.4-3.6s-0.4-1.8-0.8-2.4c-0.3-0.7-0.8-1.3-1.3-1.8
			c-0.7-0.8-1.7-1.4-2.7-1.9c-1.1-0.5-2.2-0.7-3.5-0.7c-1.3,0-2.4,0.2-3.5,0.7c-1.1,0.5-2,1.1-2.7,1.9c-0.5,0.6-0.9,1.2-1.3,1.8
			c-0.3,0.7-0.6,1.5-0.8,2.4s-0.3,2.2-0.4,3.6c-0.1,1.4-0.1,3.2-0.1,5.3s0,3.9,0.1,5.3s0.2,2.6,0.4,3.6c0.2,1,0.4,1.8,0.8,2.4
			c0.3,0.7,0.8,1.3,1.3,1.8c0.7,0.8,1.7,1.4,2.7,1.9c1.1,0.5,2.2,0.7,3.5,0.7c1.3,0,2.4-0.2,3.5-0.7c1.1-0.5,2-1.1,2.7-1.9
			c0.5-0.6,0.9-1.2,1.3-1.8c0.3-0.7,0.6-1.5,0.8-2.4c0.2-1,0.3-2.2,0.4-3.6s0.1-3.2,0.1-5.3S458.7,612.5,458.6,611.1z"/>
		<path class="st1" d="M546.9,613.2c-0.6,1.6-1.5,2.9-2.7,4.1c-1.2,1.1-2.6,2-4.2,2.7c-1.6,0.7-3.5,1-5.5,1H525v16.7h-6.3v-42.5
			h15.8c2,0,3.9,0.3,5.5,1c1.6,0.7,3,1.6,4.2,2.7c1.2,1.1,2.1,2.5,2.7,4.1c0.6,1.6,0.9,3.3,0.9,5.1
			C547.9,609.9,547.5,611.7,546.9,613.2z M539.5,602.8c-1.3-1.2-3.1-1.8-5.4-1.8H525v14.1h9.1c2.2,0,4-0.6,5.4-1.8
			c1.3-1.2,2-3,2-5.2S540.9,604.1,539.5,602.8z"/>
		<path class="st1" d="M620.8,637.7l-2.9-8.5h-16.5l-2.9,8.5h-6.7l15.3-42.5h5.1l15.3,42.5H620.8z M600.6,590.8v-6.4h5.4v6.4H600.6z
			 M609.9,604.9l-6.5,18.8h12.8L609.9,604.9z M613.2,590.8v-6.4h5.4v6.4H613.2z"/>
		<path class="st1" d="M707.4,620.8c0,1.6-0.1,3.1-0.4,4.7c-0.2,1.5-0.6,3-1.2,4.4c-0.6,1.4-1.4,2.7-2.6,3.8c-1.3,1.4-2.9,2.4-4.7,3
			s-3.8,1-6,1h-14.7v-42.5h14.7c2.2,0,4.2,0.3,6,1s3.4,1.7,4.7,3c1.1,1.2,2,2.4,2.6,3.7c0.6,1.3,1,2.7,1.2,4.2
			c0.2,1.5,0.4,2.9,0.4,4.4c0,1.5,0,3,0,4.6S707.4,619.2,707.4,620.8z M700.8,608.7c-0.2-2-0.8-3.6-1.9-4.9
			c-1.7-1.9-4.1-2.9-7.1-2.9h-7.7v30.9h7.7c3,0,5.4-1,7.1-2.9c1.1-1.2,1.7-3,1.9-5.2s0.3-4.8,0.3-7.7S701,610.7,700.8,608.7z"/>
		<path class="st1" d="M761.1,637.7v-42.5h6.3v42.5H761.1z"/>
		<path class="st1" d="M822.6,637.7v-42.5h26.7v5.8h-20.3v12.4h17.4v5.7h-17.4v12.8h20.3v5.8H822.6z"/>
	</g>
	<g>
		<path class="st1" d="M150.3,122.3l-5.2-14.5h-27.8l-5.2,14.5h-4.9l21.9-59.6h4l21.9,59.6H150.3z M131.3,68.8l-12.5,35.1h24.9
			L131.3,68.8z"/>
		<path class="st1" d="M249.5,98.2c0,2.3-0.2,4.6-0.6,6.9c-0.4,2.3-0.9,4.4-1.7,6.5c-0.8,2.1-1.9,3.8-3.4,5.4
			c-1.8,1.8-3.9,3.1-6.4,4.1s-5.3,1.4-8.5,1.4h-20V62.7h20c6.3,0,11.3,1.8,14.9,5.4c1.5,1.5,2.6,3.2,3.4,5.1
			c0.8,1.9,1.4,3.9,1.7,5.9c0.4,2,0.6,4.1,0.6,6.3c0,2.1,0,4.2,0,6.2C249.5,93.7,249.5,95.9,249.5,98.2z M245,86.4
			c0-1.9-0.2-3.7-0.4-5.5c-0.3-1.8-0.7-3.5-1.3-5.2c-0.6-1.6-1.5-3.1-2.7-4.3c-1.7-1.8-3.7-3-5.9-3.6c-2.2-0.6-4.5-1-6.9-1h-14.4
			v51.6h14.4c2.4,0,4.7-0.3,6.9-1c2.2-0.6,4.2-1.9,5.9-3.6c1.2-1.2,2.1-2.7,2.7-4.6c0.6-1.8,1-3.7,1.3-5.8c0.3-2,0.4-4.1,0.4-6.1
			c0-2,0-3.9,0-5.6S245,88.2,245,86.4z"/>
		<path class="st1" d="M308.8,122.3V62.7h36.2v4h-31.6v23.5h26.9v4h-26.9v24h31.6v4H308.8z"/>
		<path class="st1" d="M402,122.3V62.7h4.5v55.6h31.6v4H402z"/>
		<path class="st1" d="M538.6,122.3V73.2L520.5,114H516l-18.4-40.8v49.1h-4.5V62.7h4.5l20.8,45.9l20.3-45.9h4.5v59.6H538.6z"/>
		<path class="st1" d="M639.8,122.3l-5.2-14.5h-27.8l-5.2,14.5h-4.9l21.9-59.6h4l21.9,59.6H639.8z M620.7,68.8l-12.5,35.1h24.9
			L620.7,68.8z"/>
		<path class="st1" d="M737.2,122.3l-34.4-51.8v51.8h-4.5V62.7h4.5l34.4,51.6V62.7h4.5v59.6H737.2z"/>
		<path class="st1" d="M842.2,122.3l-34.4-51.8v51.8h-4.5V62.7h4.5l34.4,51.6V62.7h4.5v59.6H842.2z"/>
	</g>
	<g>
		<rect x="78" y="538.1" class="st2" width="800" height="1.9"/>
		<rect x="78" y="657.1" class="st2" width="800" height="1.9"/>
		<rect x="78" y="475.1" class="st2" width="800" height="1.9"/>
		<rect x="78" y="412.1" class="st2" width="800" height="1.9"/>
		<rect x="78" y="349.1" class="st2" width="800" height="1.9"/>
		<rect x="78" y="285.1" class="st2" width="800" height="1.9"/>
		<rect x="78" y="222.1" class="st2" width="800" height="1.9"/>
		<rect x="78" y="160.1" class="st2" width="800" height="1.9"/>
	</g>
	<g>
		<path d="M306.8,159.3c-108.2,0-195.8,85.1-195.8,190s87.7,190,195.8,190s195.8-85.1,195.8-190S414.9,159.3,306.8,159.3z
			 M306.8,514.5c-91.2,0-165.2-74-165.2-165.2s74-165.2,165.2-165.2S472,258.1,472,349.3S398,514.5,306.8,514.5z"/>
		<path d="M823.5,539.3h28.8l-169.7-380h-14.3l-169.6,380h29.2l57-130.4h180.3L823.5,539.3z M595.4,385.1l79.3-178l79.6,178H595.4z"
			/>
	</g>
</g>
</svg>
